<mxfile host="drawio-plugin" modified="2022-03-22T09:13:40.216Z" agent="5.0 (Windows NT 6.2; Win64; x64) AppleWebKit/537.36 (KHTML, like Gecko) Chrome/89.0.4389.114 Safari/537.36" etag="QDPiI2F8dm9n4TW4Jf3c" version="15.5.4" type="embed"><diagram id="wwO-6drBb7SIiyMxY8VT" name="Page-1"><mxGraphModel dx="1622" dy="848" grid="0" gridSize="10" guides="1" tooltips="1" connect="1" arrows="1" fold="1" page="0" pageScale="1" pageWidth="827" pageHeight="1169" math="0" shadow="0"><root><mxCell id="0"/><mxCell id="1" parent="0"/><mxCell id="xXq_9XsDt4aCnLvBwpvl-111" value="user.cmd.api" style="shape=module;align=left;spacingLeft=20;align=center;verticalAlign=top;fontStyle=1;fontSize=15;strokeColor=#0E452A;strokeWidth=2;fontColor=#0E452A;labelBackgroundColor=none;fillColor=#B2E2AB;" parent="1" vertex="1"><mxGeometry x="90" y="212" width="1720" height="330" as="geometry"/></mxCell><mxCell id="xXq_9XsDt4aCnLvBwpvl-125" value="user.query.api" style="shape=module;align=left;spacingLeft=20;align=center;verticalAlign=top;fontStyle=1;fontSize=15;strokeColor=#0E452A;strokeWidth=2;fontColor=#0E452A;fillColor=#E7F6E5;" parent="1" vertex="1"><mxGeometry x="90" y="928" width="1720" height="320" as="geometry"/></mxCell><mxCell id="okJUnWFdCEgONFzXg9lb-35" value="" style="shape=folder;fontStyle=1;spacingTop=10;tabWidth=110;tabHeight=29;tabPosition=left;html=1;fontColor=#9AC7BF;strokeWidth=2;strokeColor=#0E452A;fillColor=#D5E8D4;" parent="1" vertex="1"><mxGeometry x="1592" y="1026.5" width="198" height="120" as="geometry"/></mxCell><mxCell id="okJUnWFdCEgONFzXg9lb-36" value="repositories" style="text;html=1;strokeColor=none;fillColor=none;align=center;verticalAlign=middle;whiteSpace=wrap;rounded=0;fontColor=#177245;fontStyle=1" parent="1" vertex="1"><mxGeometry x="1589" y="1031.5" width="109" height="20" as="geometry"/></mxCell><mxCell id="okJUnWFdCEgONFzXg9lb-33" value="" style="shape=folder;fontStyle=1;spacingTop=10;tabWidth=110;tabHeight=29;tabPosition=left;html=1;fontColor=#9AC7BF;strokeWidth=2;strokeColor=#0E452A;fillColor=#D5E8D4;" parent="1" vertex="1"><mxGeometry x="1275" y="947" width="198.5" height="203" as="geometry"/></mxCell><mxCell id="okJUnWFdCEgONFzXg9lb-34" value="handlers" style="text;html=1;strokeColor=none;fillColor=none;align=center;verticalAlign=middle;whiteSpace=wrap;rounded=0;fontColor=#177245;fontStyle=1" parent="1" vertex="1"><mxGeometry x="1275.5" y="952" width="109" height="20" as="geometry"/></mxCell><mxCell id="xXq_9XsDt4aCnLvBwpvl-118" value="user.core" style="shape=module;align=left;spacingLeft=20;align=center;verticalAlign=top;fontStyle=1;fontSize=15;strokeColor=#0E452A;strokeWidth=2;fillColor=#B9E0A5;fontColor=#0E452A;" parent="1" vertex="1"><mxGeometry x="90" y="561" width="1720" height="350" as="geometry"/></mxCell><mxCell id="okJUnWFdCEgONFzXg9lb-2" value="" style="shape=folder;fontStyle=1;spacingTop=10;tabWidth=110;tabHeight=29;tabPosition=left;html=1;fontColor=#9AC7BF;strokeWidth=2;strokeColor=#0E452A;fillColor=#D5E8D4;" parent="1" vertex="1"><mxGeometry x="1275" y="319" width="198" height="120" as="geometry"/></mxCell><mxCell id="xXq_9XsDt4aCnLvBwpvl-1" value="" style="shape=folder;fontStyle=1;spacingTop=10;tabWidth=110;tabHeight=29;tabPosition=left;html=1;fontColor=#9AC7BF;strokeWidth=2;strokeColor=#0E452A;fillColor=#D5E8D4;" parent="1" vertex="1"><mxGeometry x="795.5" y="945" width="198.5" height="281" as="geometry"/></mxCell><mxCell id="xXq_9XsDt4aCnLvBwpvl-2" value="" style="shape=folder;fontStyle=1;spacingTop=10;tabWidth=110;tabHeight=29;tabPosition=left;html=1;fontColor=#9AC7BF;strokeWidth=2;strokeColor=#0E452A;fillColor=#D5E8D4;" parent="1" vertex="1"><mxGeometry x="795.5" y="575" width="200" height="318" as="geometry"/></mxCell><mxCell id="xXq_9XsDt4aCnLvBwpvl-3" style="edgeStyle=orthogonalEdgeStyle;rounded=0;orthogonalLoop=1;jettySize=auto;html=1;exitX=0;exitY=0;exitDx=0;exitDy=72.5;exitPerimeter=0;entryX=1;entryY=0.5;entryDx=0;entryDy=0;dashed=1;endArrow=open;endFill=0;strokeColor=#333333;fontColor=#9AC7BF;" parent="1" source="xXq_9XsDt4aCnLvBwpvl-5" target="xXq_9XsDt4aCnLvBwpvl-26" edge="1"><mxGeometry relative="1" as="geometry"/></mxCell><mxCell id="xXq_9XsDt4aCnLvBwpvl-4" value="&lt;font color=&quot;#333333&quot;&gt;&amp;lt;&amp;lt;use&amp;gt;&amp;gt;&lt;/font&gt;" style="edgeLabel;html=1;align=center;verticalAlign=middle;resizable=0;points=[];fontColor=#9AC7BF;labelBackgroundColor=#B9E0A5;fontStyle=1" parent="xXq_9XsDt4aCnLvBwpvl-3" vertex="1" connectable="0"><mxGeometry x="0.6521" y="2" relative="1" as="geometry"><mxPoint x="4.93" y="50" as="offset"/></mxGeometry></mxCell><mxCell id="xXq_9XsDt4aCnLvBwpvl-5" value="" style="shape=folder;fontStyle=1;spacingTop=10;tabWidth=84;tabHeight=25;tabPosition=left;html=1;fontColor=#9AC7BF;strokeWidth=2;strokeColor=#0E452A;fillColor=#D5E8D4;" parent="1" vertex="1"><mxGeometry x="1070.25" y="674" width="610" height="120" as="geometry"/></mxCell><mxCell id="xXq_9XsDt4aCnLvBwpvl-6" value="" style="shape=folder;fontStyle=1;spacingTop=10;tabWidth=110;tabHeight=29;tabPosition=left;html=1;fontColor=#9AC7BF;strokeWidth=2;strokeColor=#0E452A;fillColor=#D5E8D4;" parent="1" vertex="1"><mxGeometry x="462" y="238" width="206.5" height="280" as="geometry"/></mxCell><mxCell id="xXq_9XsDt4aCnLvBwpvl-7" value="&lt;b&gt;&lt;font color=&quot;#333333&quot;&gt;&amp;lt;&amp;lt;use&amp;gt;&amp;gt;&lt;/font&gt;&lt;/b&gt;" style="edgeStyle=orthogonalEdgeStyle;rounded=0;orthogonalLoop=1;jettySize=auto;html=1;entryX=0.5;entryY=0;entryDx=0;entryDy=0;dashed=1;endArrow=open;endFill=0;strokeColor=#333333;fontColor=#9AC7BF;" parent="1" source="xXq_9XsDt4aCnLvBwpvl-8" target="xXq_9XsDt4aCnLvBwpvl-26" edge="1"><mxGeometry x="1" y="-65" relative="1" as="geometry"><Array as="points"><mxPoint x="897.25" y="620"/></Array><mxPoint x="-65" y="-65" as="offset"/></mxGeometry></mxCell><mxCell id="xXq_9XsDt4aCnLvBwpvl-8" value="" style="shape=folder;fontStyle=1;spacingTop=10;tabWidth=110;tabHeight=29;tabPosition=left;html=1;fontColor=#9AC7BF;strokeWidth=2;strokeColor=#0E452A;fillColor=#D5E8D4;" parent="1" vertex="1"><mxGeometry x="793.5" y="238" width="206.5" height="280" as="geometry"/></mxCell><mxCell id="xXq_9XsDt4aCnLvBwpvl-9" style="edgeStyle=orthogonalEdgeStyle;rounded=0;orthogonalLoop=1;jettySize=auto;html=1;exitX=0;exitY=0.25;exitDx=0;exitDy=0;entryX=1;entryY=0.5;entryDx=0;entryDy=0;dashed=1;endArrow=open;endFill=0;strokeColor=#333333;fontColor=#9AC7BF;labelBackgroundColor=#B2E2AB;" parent="1" source="xXq_9XsDt4aCnLvBwpvl-21" target="xXq_9XsDt4aCnLvBwpvl-34" edge="1"><mxGeometry relative="1" as="geometry"><Array as="points"><mxPoint x="1135" y="376"/><mxPoint x="1135" y="313"/></Array></mxGeometry></mxCell><mxCell id="xXq_9XsDt4aCnLvBwpvl-10" value="&lt;span style=&quot;&quot;&gt;&lt;font color=&quot;#333333&quot;&gt;&amp;lt;&amp;lt;handle&amp;gt;&amp;gt;&lt;/font&gt;&lt;/span&gt;" style="edgeLabel;html=1;align=center;verticalAlign=middle;resizable=0;points=[];fontColor=#9AC7BF;labelBackgroundColor=#B2E2AB;fontStyle=1" parent="xXq_9XsDt4aCnLvBwpvl-9" vertex="1" connectable="0"><mxGeometry x="0.2435" y="1" relative="1" as="geometry"><mxPoint x="-62.33" y="-1" as="offset"/></mxGeometry></mxCell><mxCell id="xXq_9XsDt4aCnLvBwpvl-11" style="edgeStyle=orthogonalEdgeStyle;rounded=0;orthogonalLoop=1;jettySize=auto;html=1;exitX=0;exitY=0.5;exitDx=0;exitDy=0;dashed=1;endArrow=open;endFill=0;strokeColor=#333333;fontColor=#9AC7BF;labelBackgroundColor=#B2E2AB;" parent="1" source="xXq_9XsDt4aCnLvBwpvl-21" target="xXq_9XsDt4aCnLvBwpvl-36" edge="1"><mxGeometry relative="1" as="geometry"/></mxCell><mxCell id="xXq_9XsDt4aCnLvBwpvl-12" value="&lt;span style=&quot;&quot;&gt;&lt;b&gt;&lt;span style=&quot;color: rgb(51 , 51 , 51)&quot;&gt;&amp;lt;&amp;lt;handle&amp;gt;&amp;gt;&lt;/span&gt;&lt;/b&gt;&lt;/span&gt;" style="edgeLabel;html=1;align=center;verticalAlign=middle;resizable=0;points=[];fontColor=#9AC7BF;labelBackgroundColor=#B2E2AB;" parent="xXq_9XsDt4aCnLvBwpvl-11" vertex="1" connectable="0"><mxGeometry x="0.1771" y="-3" relative="1" as="geometry"><mxPoint x="-39.83" y="3" as="offset"/></mxGeometry></mxCell><mxCell id="xXq_9XsDt4aCnLvBwpvl-13" style="edgeStyle=orthogonalEdgeStyle;rounded=0;orthogonalLoop=1;jettySize=auto;html=1;exitX=0;exitY=0.75;exitDx=0;exitDy=0;entryX=1;entryY=0.5;entryDx=0;entryDy=0;dashed=1;endArrow=open;endFill=0;strokeColor=#333333;fontColor=#9AC7BF;labelBackgroundColor=#B2E2AB;" parent="1" source="xXq_9XsDt4aCnLvBwpvl-21" target="xXq_9XsDt4aCnLvBwpvl-56" edge="1"><mxGeometry relative="1" as="geometry"><Array as="points"><mxPoint x="1135" y="411"/><mxPoint x="1135" y="473"/></Array></mxGeometry></mxCell><mxCell id="xXq_9XsDt4aCnLvBwpvl-14" value="&lt;span style=&quot;color: rgb(51 , 51 , 51)&quot;&gt;&amp;lt;&amp;lt;handle&amp;gt;&amp;gt;&lt;/span&gt;" style="edgeLabel;html=1;align=center;verticalAlign=middle;resizable=0;points=[];fontColor=#9AC7BF;labelBackgroundColor=#B2E2AB;fontStyle=1" parent="xXq_9XsDt4aCnLvBwpvl-13" vertex="1" connectable="0"><mxGeometry x="0.3985" y="-1" relative="1" as="geometry"><mxPoint x="-41.17" y="1" as="offset"/></mxGeometry></mxCell><mxCell id="xXq_9XsDt4aCnLvBwpvl-15" style="edgeStyle=orthogonalEdgeStyle;rounded=0;orthogonalLoop=1;jettySize=auto;html=1;exitX=0.25;exitY=1;exitDx=0;exitDy=0;entryX=0.5;entryY=0;entryDx=0;entryDy=0;dashed=1;endArrow=open;endFill=0;strokeColor=#333333;fontColor=#9AC7BF;labelBackgroundColor=#B9E0A5;" parent="1" source="xXq_9XsDt4aCnLvBwpvl-21" target="xXq_9XsDt4aCnLvBwpvl-39" edge="1"><mxGeometry relative="1" as="geometry"><Array as="points"><mxPoint x="1240.25" y="583"/><mxPoint x="1085.25" y="583"/></Array></mxGeometry></mxCell><mxCell id="xXq_9XsDt4aCnLvBwpvl-16" value="&lt;font color=&quot;#333333&quot;&gt;&amp;lt;&amp;lt;raise&amp;gt;&amp;gt;&lt;/font&gt;" style="edgeLabel;html=1;align=center;verticalAlign=middle;resizable=0;points=[];fontColor=#9AC7BF;labelBackgroundColor=#B9E0A5;fontStyle=1" parent="xXq_9XsDt4aCnLvBwpvl-15" vertex="1" connectable="0"><mxGeometry x="-0.4053" y="-35" relative="1" as="geometry"><mxPoint x="-120.02999999999999" y="69.99000000000001" as="offset"/></mxGeometry></mxCell><mxCell id="xXq_9XsDt4aCnLvBwpvl-17" style="edgeStyle=orthogonalEdgeStyle;rounded=0;orthogonalLoop=1;jettySize=auto;html=1;exitX=0.5;exitY=1;exitDx=0;exitDy=0;entryX=0.5;entryY=0;entryDx=0;entryDy=0;dashed=1;endArrow=open;endFill=0;strokeColor=#333333;fontColor=#9AC7BF;labelBackgroundColor=#B9E0A5;" parent="1" source="xXq_9XsDt4aCnLvBwpvl-21" target="xXq_9XsDt4aCnLvBwpvl-41" edge="1"><mxGeometry relative="1" as="geometry"/></mxCell><mxCell id="xXq_9XsDt4aCnLvBwpvl-18" value="&lt;font color=&quot;#333333&quot;&gt;&amp;lt;&amp;lt;raise&amp;gt;&amp;gt;&lt;/font&gt;" style="edgeLabel;html=1;align=center;verticalAlign=middle;resizable=0;points=[];fontColor=#9AC7BF;fontStyle=1;labelBackgroundColor=#B9E0A5;" parent="xXq_9XsDt4aCnLvBwpvl-17" vertex="1" connectable="0"><mxGeometry x="0.1911" y="4" relative="1" as="geometry"><mxPoint x="-3" y="31.9" as="offset"/></mxGeometry></mxCell><mxCell id="xXq_9XsDt4aCnLvBwpvl-19" style="edgeStyle=orthogonalEdgeStyle;rounded=0;orthogonalLoop=1;jettySize=auto;html=1;exitX=0.75;exitY=1;exitDx=0;exitDy=0;dashed=1;endArrow=open;endFill=0;strokeColor=#333333;fontColor=#9AC7BF;labelBackgroundColor=#B9E0A5;" parent="1" source="xXq_9XsDt4aCnLvBwpvl-21" target="xXq_9XsDt4aCnLvBwpvl-43" edge="1"><mxGeometry relative="1" as="geometry"><Array as="points"><mxPoint x="1419.25" y="580"/><mxPoint x="1574.25" y="580"/></Array></mxGeometry></mxCell><mxCell id="xXq_9XsDt4aCnLvBwpvl-20" value="&lt;font color=&quot;#333333&quot;&gt;&amp;lt;&amp;lt;raise&amp;gt;&amp;gt;&lt;/font&gt;" style="edgeLabel;html=1;align=center;verticalAlign=middle;resizable=0;points=[];fontColor=#9AC7BF;fontStyle=1;labelBackgroundColor=#B9E0A5;" parent="xXq_9XsDt4aCnLvBwpvl-19" vertex="1" connectable="0"><mxGeometry x="0.2132" y="1" relative="1" as="geometry"><mxPoint x="39.73" y="51" as="offset"/></mxGeometry></mxCell><mxCell id="xXq_9XsDt4aCnLvBwpvl-121" style="rounded=0;orthogonalLoop=1;jettySize=auto;html=1;exitX=0;exitY=1;exitDx=0;exitDy=0;entryX=0.75;entryY=0;entryDx=0;entryDy=0;fontSize=15;dashed=1;endArrow=open;endFill=0;labelBackgroundColor=#B2E2AB;" parent="1" source="xXq_9XsDt4aCnLvBwpvl-21" target="xXq_9XsDt4aCnLvBwpvl-26" edge="1"><mxGeometry relative="1" as="geometry"/></mxCell><mxCell id="xXq_9XsDt4aCnLvBwpvl-122" value="&lt;font style=&quot;font-size: 12px&quot;&gt;&amp;lt;&amp;lt;use&amp;gt;&amp;gt;&lt;/font&gt;" style="edgeLabel;html=1;align=center;verticalAlign=middle;resizable=0;points=[];fontSize=15;labelBackgroundColor=#B2E2AB;fontStyle=1" parent="xXq_9XsDt4aCnLvBwpvl-121" vertex="1" connectable="0"><mxGeometry x="-0.1385" y="2" relative="1" as="geometry"><mxPoint as="offset"/></mxGeometry></mxCell><mxCell id="okJUnWFdCEgONFzXg9lb-61" style="edgeStyle=orthogonalEdgeStyle;rounded=0;orthogonalLoop=1;jettySize=auto;html=1;exitX=1;exitY=0.5;exitDx=0;exitDy=0;entryX=0;entryY=0.5;entryDx=0;entryDy=0;shadow=0;dashed=1;labelBackgroundColor=#009999;startArrow=open;startFill=0;endArrow=open;endFill=0;strokeColor=#000000;fontColor=#FFB366;" parent="1" source="xXq_9XsDt4aCnLvBwpvl-21" target="okJUnWFdCEgONFzXg9lb-40" edge="1"><mxGeometry relative="1" as="geometry"/></mxCell><mxCell id="okJUnWFdCEgONFzXg9lb-62" value="&lt;b&gt;&amp;lt;&amp;lt;use&amp;gt;&amp;gt;&lt;/b&gt;" style="edgeLabel;html=1;align=center;verticalAlign=middle;resizable=0;points=[];fontColor=#0E452A;labelBackgroundColor=#B2E2AB;" parent="okJUnWFdCEgONFzXg9lb-61" vertex="1" connectable="0"><mxGeometry x="0.2093" relative="1" as="geometry"><mxPoint x="-70.42000000000002" y="-11.320000000000007" as="offset"/></mxGeometry></mxCell><mxCell id="xXq_9XsDt4aCnLvBwpvl-21" value="«aggregate»&lt;br&gt;&lt;b&gt;UserAggregate&lt;/b&gt;" style="html=1;dropTarget=0;fillColor=#f5f5f5;fontColor=#0E452A;strokeColor=#0E452A;" parent="1" vertex="1"><mxGeometry x="1284.25" y="358" width="180" height="70" as="geometry"/></mxCell><mxCell id="xXq_9XsDt4aCnLvBwpvl-22" value="" style="shape=component;jettyWidth=8;jettyHeight=4;" parent="xXq_9XsDt4aCnLvBwpvl-21" vertex="1"><mxGeometry x="1" width="20" height="20" relative="1" as="geometry"><mxPoint x="-27" y="7" as="offset"/></mxGeometry></mxCell><mxCell id="xXq_9XsDt4aCnLvBwpvl-25" value="&lt;font color=&quot;#333333&quot;&gt;&amp;lt;&amp;lt;has&amp;gt;&amp;gt;&lt;/font&gt;" style="edgeStyle=orthogonalEdgeStyle;rounded=0;orthogonalLoop=1;jettySize=auto;html=1;exitX=0.5;exitY=1;exitDx=0;exitDy=0;entryX=0.5;entryY=0;entryDx=0;entryDy=0;fontColor=#9AC7BF;dashed=1;endArrow=open;endFill=0;labelBackgroundColor=#D5E8D4;" parent="1" source="xXq_9XsDt4aCnLvBwpvl-26" target="xXq_9XsDt4aCnLvBwpvl-29" edge="1"><mxGeometry relative="1" as="geometry"/></mxCell><mxCell id="xXq_9XsDt4aCnLvBwpvl-26" value="&lt;b&gt;User&lt;/b&gt;" style="html=1;dropTarget=0;fillColor=#f5f5f5;fontColor=#0E452A;strokeColor=#0E452A;" parent="1" vertex="1"><mxGeometry x="806.5" y="615" width="180" height="68" as="geometry"/></mxCell><mxCell id="xXq_9XsDt4aCnLvBwpvl-27" value="" style="shape=component;jettyWidth=8;jettyHeight=4;" parent="xXq_9XsDt4aCnLvBwpvl-26" vertex="1"><mxGeometry x="1" width="20" height="20" relative="1" as="geometry"><mxPoint x="-27" y="7" as="offset"/></mxGeometry></mxCell><mxCell id="xXq_9XsDt4aCnLvBwpvl-28" value="&lt;font color=&quot;#333333&quot;&gt;&amp;lt;&amp;lt;has&amp;gt;&amp;gt;&lt;/font&gt;" style="edgeStyle=orthogonalEdgeStyle;rounded=0;orthogonalLoop=1;jettySize=auto;html=1;exitX=0.5;exitY=1;exitDx=0;exitDy=0;entryX=0.5;entryY=0;entryDx=0;entryDy=0;fontColor=#9AC7BF;dashed=1;strokeColor=#333333;labelBackgroundColor=#D5E8D4;" parent="1" source="xXq_9XsDt4aCnLvBwpvl-29" target="xXq_9XsDt4aCnLvBwpvl-31" edge="1"><mxGeometry relative="1" as="geometry"/></mxCell><mxCell id="xXq_9XsDt4aCnLvBwpvl-29" value="&lt;b&gt;Account&lt;/b&gt;" style="html=1;dropTarget=0;fillColor=#f5f5f5;fontColor=#0E452A;strokeColor=#0E452A;" parent="1" vertex="1"><mxGeometry x="806.75" y="712.03" width="180" height="70.97" as="geometry"/></mxCell><mxCell id="xXq_9XsDt4aCnLvBwpvl-30" value="" style="shape=component;jettyWidth=8;jettyHeight=4;" parent="xXq_9XsDt4aCnLvBwpvl-29" vertex="1"><mxGeometry x="1" width="20" height="20" relative="1" as="geometry"><mxPoint x="-27" y="7" as="offset"/></mxGeometry></mxCell><mxCell id="xXq_9XsDt4aCnLvBwpvl-31" value="&lt;b&gt;Role&lt;/b&gt;" style="html=1;dropTarget=0;fillColor=#f5f5f5;fontColor=#0E452A;strokeColor=#0E452A;" parent="1" vertex="1"><mxGeometry x="807.75" y="813" width="180" height="70.97" as="geometry"/></mxCell><mxCell id="xXq_9XsDt4aCnLvBwpvl-32" value="" style="shape=component;jettyWidth=8;jettyHeight=4;" parent="xXq_9XsDt4aCnLvBwpvl-31" vertex="1"><mxGeometry x="1" width="20" height="20" relative="1" as="geometry"><mxPoint x="-27" y="7" as="offset"/></mxGeometry></mxCell><mxCell id="xXq_9XsDt4aCnLvBwpvl-33" value="models" style="text;html=1;strokeColor=none;fillColor=none;align=center;verticalAlign=middle;whiteSpace=wrap;rounded=0;fontColor=#177245;fontStyle=1" parent="1" vertex="1"><mxGeometry x="795.5" y="579" width="109" height="20" as="geometry"/></mxCell><mxCell id="xXq_9XsDt4aCnLvBwpvl-34" value="&lt;b&gt;RegisterUserCommand&lt;/b&gt;" style="html=1;dropTarget=0;fillColor=#f5f5f5;fontColor=#0E452A;strokeColor=#0E452A;" parent="1" vertex="1"><mxGeometry x="807.75" y="278" width="180" height="70" as="geometry"/></mxCell><mxCell id="xXq_9XsDt4aCnLvBwpvl-35" value="" style="shape=component;jettyWidth=8;jettyHeight=4;" parent="xXq_9XsDt4aCnLvBwpvl-34" vertex="1"><mxGeometry x="1" width="20" height="20" relative="1" as="geometry"><mxPoint x="-27" y="7" as="offset"/></mxGeometry></mxCell><mxCell id="xXq_9XsDt4aCnLvBwpvl-36" value="&lt;b&gt;UpdateUserCommand&lt;/b&gt;" style="html=1;dropTarget=0;fillColor=#f5f5f5;fontColor=#0E452A;strokeColor=#0E452A;" parent="1" vertex="1"><mxGeometry x="806.75" y="358" width="180" height="70" as="geometry"/></mxCell><mxCell id="xXq_9XsDt4aCnLvBwpvl-37" value="" style="shape=component;jettyWidth=8;jettyHeight=4;" parent="xXq_9XsDt4aCnLvBwpvl-36" vertex="1"><mxGeometry x="1" width="20" height="20" relative="1" as="geometry"><mxPoint x="-27" y="7" as="offset"/></mxGeometry></mxCell><mxCell id="xXq_9XsDt4aCnLvBwpvl-38" value="&lt;b&gt;&lt;font style=&quot;font-size: 12px&quot;&gt;commands&lt;/font&gt;&lt;/b&gt;" style="text;html=1;strokeColor=none;fillColor=none;align=center;verticalAlign=middle;whiteSpace=wrap;rounded=0;fontColor=#177245;" parent="1" vertex="1"><mxGeometry x="794.25" y="243" width="109" height="20" as="geometry"/></mxCell><mxCell id="xXq_9XsDt4aCnLvBwpvl-39" value="&lt;b&gt;UserRegisteredEvent&lt;/b&gt;" style="html=1;dropTarget=0;fillColor=#f5f5f5;fontColor=#0E452A;strokeColor=#0E452A;" parent="1" vertex="1"><mxGeometry x="1084.25" y="712" width="180" height="70" as="geometry"/></mxCell><mxCell id="xXq_9XsDt4aCnLvBwpvl-40" value="" style="shape=component;jettyWidth=8;jettyHeight=4;" parent="xXq_9XsDt4aCnLvBwpvl-39" vertex="1"><mxGeometry x="1" width="20" height="20" relative="1" as="geometry"><mxPoint x="-27" y="7" as="offset"/></mxGeometry></mxCell><mxCell id="xXq_9XsDt4aCnLvBwpvl-41" value="&lt;b&gt;UserUpdatedEvent&lt;/b&gt;" style="html=1;dropTarget=0;fillColor=#f5f5f5;fontColor=#0E452A;strokeColor=#0E452A;" parent="1" vertex="1"><mxGeometry x="1284.25" y="712" width="180" height="70" as="geometry"/></mxCell><mxCell id="xXq_9XsDt4aCnLvBwpvl-42" value="" style="shape=component;jettyWidth=8;jettyHeight=4;" parent="xXq_9XsDt4aCnLvBwpvl-41" vertex="1"><mxGeometry x="1" width="20" height="20" relative="1" as="geometry"><mxPoint x="-27" y="7" as="offset"/></mxGeometry></mxCell><mxCell id="xXq_9XsDt4aCnLvBwpvl-43" value="&lt;b&gt;UserRemovedEvent&lt;/b&gt;" style="html=1;dropTarget=0;fillColor=#f5f5f5;fontColor=#0E452A;strokeColor=#0E452A;" parent="1" vertex="1"><mxGeometry x="1484.25" y="712" width="180" height="70" as="geometry"/></mxCell><mxCell id="xXq_9XsDt4aCnLvBwpvl-44" value="" style="shape=component;jettyWidth=8;jettyHeight=4;" parent="xXq_9XsDt4aCnLvBwpvl-43" vertex="1"><mxGeometry x="1" width="20" height="20" relative="1" as="geometry"><mxPoint x="-27" y="7" as="offset"/></mxGeometry></mxCell><mxCell id="xXq_9XsDt4aCnLvBwpvl-45" value="&lt;b&gt;&lt;font style=&quot;font-size: 12px&quot;&gt;events&lt;/font&gt;&lt;/b&gt;" style="text;html=1;strokeColor=none;fillColor=none;align=center;verticalAlign=middle;whiteSpace=wrap;rounded=0;fontColor=#177245;" parent="1" vertex="1"><mxGeometry x="1060.25" y="677" width="109" height="20" as="geometry"/></mxCell><mxCell id="xXq_9XsDt4aCnLvBwpvl-46" value="&lt;span style=&quot;&quot;&gt;&lt;b&gt;&lt;font color=&quot;#333333&quot;&gt;&amp;lt;&amp;lt;&lt;span style=&quot;&quot;&gt;dispatch&lt;/span&gt;&amp;gt;&amp;gt;&lt;/font&gt;&lt;/b&gt;&lt;/span&gt;" style="edgeStyle=orthogonalEdgeStyle;rounded=0;orthogonalLoop=1;jettySize=auto;html=1;entryX=0;entryY=0.5;entryDx=0;entryDy=0;dashed=1;fontColor=#9AC7BF;endArrow=open;endFill=0;shadow=0;labelBackgroundColor=#B2E2AB;" parent="1" source="xXq_9XsDt4aCnLvBwpvl-47" target="xXq_9XsDt4aCnLvBwpvl-34" edge="1"><mxGeometry relative="1" as="geometry"><Array as="points"><mxPoint x="715.25" y="313"/><mxPoint x="715.25" y="313"/></Array></mxGeometry></mxCell><mxCell id="xXq_9XsDt4aCnLvBwpvl-47" value="«restcontroller»&lt;br&gt;&lt;b&gt;RegisterUserController&lt;/b&gt;" style="html=1;dropTarget=0;fontColor=#0E452A;strokeColor=#0E452A;fillColor=#F5F5F5;" parent="1" vertex="1"><mxGeometry x="475.25" y="278" width="180" height="70" as="geometry"/></mxCell><mxCell id="xXq_9XsDt4aCnLvBwpvl-48" value="" style="shape=component;jettyWidth=8;jettyHeight=4;fillColor=#F5F5F5;" parent="xXq_9XsDt4aCnLvBwpvl-47" vertex="1"><mxGeometry x="1" width="20" height="20" relative="1" as="geometry"><mxPoint x="-27" y="7" as="offset"/></mxGeometry></mxCell><mxCell id="xXq_9XsDt4aCnLvBwpvl-49" value="&lt;span style=&quot;&quot;&gt;&lt;b&gt;&lt;font color=&quot;#333333&quot;&gt;&amp;lt;&amp;lt;&lt;span style=&quot;&quot;&gt;dispatch&lt;/span&gt;&amp;gt;&amp;gt;&lt;/font&gt;&lt;/b&gt;&lt;/span&gt;" style="edgeStyle=orthogonalEdgeStyle;rounded=0;orthogonalLoop=1;jettySize=auto;html=1;entryX=0;entryY=0.5;entryDx=0;entryDy=0;dashed=1;endArrow=open;endFill=0;strokeColor=#333333;fontColor=#9AC7BF;labelBackgroundColor=#B2E2AB;" parent="1" source="xXq_9XsDt4aCnLvBwpvl-50" target="xXq_9XsDt4aCnLvBwpvl-36" edge="1"><mxGeometry relative="1" as="geometry"/></mxCell><mxCell id="xXq_9XsDt4aCnLvBwpvl-50" value="«restcontroller»&lt;br&gt;&lt;b&gt;UpdateUserController&lt;/b&gt;" style="html=1;dropTarget=0;fillColor=#f5f5f5;fontColor=#0E452A;strokeColor=#0E452A;" parent="1" vertex="1"><mxGeometry x="475.25" y="358" width="180" height="70" as="geometry"/></mxCell><mxCell id="xXq_9XsDt4aCnLvBwpvl-51" value="" style="shape=component;jettyWidth=8;jettyHeight=4;" parent="xXq_9XsDt4aCnLvBwpvl-50" vertex="1"><mxGeometry x="1" width="20" height="20" relative="1" as="geometry"><mxPoint x="-27" y="7" as="offset"/></mxGeometry></mxCell><mxCell id="xXq_9XsDt4aCnLvBwpvl-52" style="edgeStyle=orthogonalEdgeStyle;rounded=0;orthogonalLoop=1;jettySize=auto;html=1;exitX=1;exitY=0.5;exitDx=0;exitDy=0;dashed=1;endArrow=open;endFill=0;strokeColor=#333333;fontColor=#9AC7BF;labelBackgroundColor=#B2E2AB;" parent="1" source="xXq_9XsDt4aCnLvBwpvl-54" target="xXq_9XsDt4aCnLvBwpvl-56" edge="1"><mxGeometry relative="1" as="geometry"/></mxCell><mxCell id="xXq_9XsDt4aCnLvBwpvl-53" value="&lt;span style=&quot;&quot;&gt;&lt;font color=&quot;#333333&quot;&gt;&amp;lt;&amp;lt;dispatch&amp;gt;&amp;gt;&lt;/font&gt;&lt;/span&gt;" style="edgeLabel;html=1;align=center;verticalAlign=middle;resizable=0;points=[];fontColor=#9AC7BF;labelBackgroundColor=#B2E2AB;fontStyle=1" parent="xXq_9XsDt4aCnLvBwpvl-52" vertex="1" connectable="0"><mxGeometry x="-0.1501" y="-1" relative="1" as="geometry"><mxPoint x="5" y="-1" as="offset"/></mxGeometry></mxCell><mxCell id="xXq_9XsDt4aCnLvBwpvl-54" value="«restcontroller»&lt;br&gt;&lt;b&gt;RemoveUserController&lt;/b&gt;" style="html=1;dropTarget=0;fillColor=#f5f5f5;fontColor=#0E452A;strokeColor=#0E452A;" parent="1" vertex="1"><mxGeometry x="475.25" y="438" width="180" height="70" as="geometry"/></mxCell><mxCell id="xXq_9XsDt4aCnLvBwpvl-55" value="" style="shape=component;jettyWidth=8;jettyHeight=4;" parent="xXq_9XsDt4aCnLvBwpvl-54" vertex="1"><mxGeometry x="1" width="20" height="20" relative="1" as="geometry"><mxPoint x="-27" y="7" as="offset"/></mxGeometry></mxCell><mxCell id="xXq_9XsDt4aCnLvBwpvl-56" value="&lt;b&gt;RemoveUserCommand&lt;/b&gt;" style="html=1;dropTarget=0;fillColor=#f5f5f5;fontColor=#0E452A;strokeColor=#0E452A;" parent="1" vertex="1"><mxGeometry x="807.75" y="438" width="180" height="70" as="geometry"/></mxCell><mxCell id="xXq_9XsDt4aCnLvBwpvl-57" value="" style="shape=component;jettyWidth=8;jettyHeight=4;" parent="xXq_9XsDt4aCnLvBwpvl-56" vertex="1"><mxGeometry x="1" width="20" height="20" relative="1" as="geometry"><mxPoint x="-27" y="7" as="offset"/></mxGeometry></mxCell><mxCell id="xXq_9XsDt4aCnLvBwpvl-58" value="&lt;font color=&quot;#177245&quot;&gt;&lt;b&gt;&lt;font style=&quot;font-size: 12px&quot;&gt;controllers&lt;/font&gt;&lt;/b&gt;&lt;/font&gt;" style="text;html=1;strokeColor=none;fillColor=none;align=center;verticalAlign=middle;whiteSpace=wrap;rounded=0;fontColor=#9AC7BF;" parent="1" vertex="1"><mxGeometry x="462" y="243" width="109" height="20" as="geometry"/></mxCell><mxCell id="xXq_9XsDt4aCnLvBwpvl-62" value="" style="shape=folder;fontStyle=1;spacingTop=10;tabWidth=80;tabHeight=30;tabPosition=left;html=1;fontColor=#9AC7BF;strokeColor=#0E452A;strokeWidth=2;fillColor=#D5E8D4;" parent="1" vertex="1"><mxGeometry x="462" y="1024.5" width="206.5" height="117.5" as="geometry"/></mxCell><mxCell id="xXq_9XsDt4aCnLvBwpvl-63" style="edgeStyle=orthogonalEdgeStyle;rounded=0;orthogonalLoop=1;jettySize=auto;html=1;exitX=1;exitY=0.25;exitDx=0;exitDy=0;entryX=0;entryY=0.5;entryDx=0;entryDy=0;dashed=1;endArrow=open;endFill=0;strokeColor=#333333;fontColor=#9AC7BF;" parent="1" source="xXq_9XsDt4aCnLvBwpvl-69" edge="1"><mxGeometry relative="1" as="geometry"><Array as="points"><mxPoint x="682" y="1083"/><mxPoint x="682" y="1019"/></Array><mxPoint x="804.5" y="1019" as="targetPoint"/></mxGeometry></mxCell><mxCell id="xXq_9XsDt4aCnLvBwpvl-141" value="&lt;font style=&quot;font-size: 11px&quot;&gt;&amp;lt;&amp;lt;dispatch&amp;gt;&amp;gt;&lt;/font&gt;" style="edgeLabel;html=1;align=center;verticalAlign=middle;resizable=0;points=[];fontSize=15;fontStyle=1;labelBackgroundColor=#E7F6E5;fontColor=#0E452A;" parent="xXq_9XsDt4aCnLvBwpvl-63" vertex="1" connectable="0"><mxGeometry x="0.3607" y="-1" relative="1" as="geometry"><mxPoint x="3.75" y="-4" as="offset"/></mxGeometry></mxCell><mxCell id="xXq_9XsDt4aCnLvBwpvl-65" style="edgeStyle=orthogonalEdgeStyle;rounded=0;orthogonalLoop=1;jettySize=auto;html=1;exitX=1;exitY=0.5;exitDx=0;exitDy=0;entryX=0;entryY=0.5;entryDx=0;entryDy=0;dashed=1;endArrow=open;endFill=0;strokeColor=#333333;fontColor=#9AC7BF;" parent="1" source="xXq_9XsDt4aCnLvBwpvl-69" target="xXq_9XsDt4aCnLvBwpvl-74" edge="1"><mxGeometry relative="1" as="geometry"/></mxCell><mxCell id="xXq_9XsDt4aCnLvBwpvl-66" value="&amp;lt;&amp;lt;dispatch&amp;gt;&amp;gt;" style="edgeLabel;html=1;align=center;verticalAlign=middle;resizable=0;points=[];fontStyle=1;labelBackgroundColor=#E7F6E5;fontColor=#0E452A;" parent="xXq_9XsDt4aCnLvBwpvl-65" vertex="1" connectable="0"><mxGeometry x="0.2405" y="-4" relative="1" as="geometry"><mxPoint x="-7.0600000000000005" y="-4" as="offset"/></mxGeometry></mxCell><mxCell id="xXq_9XsDt4aCnLvBwpvl-67" style="edgeStyle=orthogonalEdgeStyle;rounded=0;orthogonalLoop=1;jettySize=auto;html=1;exitX=1;exitY=0.75;exitDx=0;exitDy=0;entryX=0;entryY=0.5;entryDx=0;entryDy=0;dashed=1;endArrow=open;endFill=0;strokeColor=#333333;fontColor=#333333;" parent="1" source="xXq_9XsDt4aCnLvBwpvl-69" target="xXq_9XsDt4aCnLvBwpvl-139" edge="1"><mxGeometry relative="1" as="geometry"><Array as="points"><mxPoint x="682" y="1120"/><mxPoint x="682" y="1179"/></Array><mxPoint x="804.5" y="1208" as="targetPoint"/></mxGeometry></mxCell><mxCell id="xXq_9XsDt4aCnLvBwpvl-68" value="&amp;lt;&amp;lt;dispatch&amp;gt;&amp;gt;" style="edgeLabel;html=1;align=center;verticalAlign=middle;resizable=0;points=[];fontStyle=1;labelBackgroundColor=#E7F6E5;fontColor=#0E452A;" parent="xXq_9XsDt4aCnLvBwpvl-67" vertex="1" connectable="0"><mxGeometry x="0.313" y="-5" relative="1" as="geometry"><mxPoint x="7.08" y="-5" as="offset"/></mxGeometry></mxCell><mxCell id="xXq_9XsDt4aCnLvBwpvl-69" value="«restcontroller»&lt;br&gt;&lt;b&gt;UserLookupController&lt;/b&gt;" style="html=1;dropTarget=0;fillColor=#f5f5f5;fontColor=#0E452A;strokeColor=#0E452A;" parent="1" vertex="1"><mxGeometry x="475.25" y="1066.5" width="180" height="65.5" as="geometry"/></mxCell><mxCell id="xXq_9XsDt4aCnLvBwpvl-70" value="" style="shape=component;jettyWidth=8;jettyHeight=4;" parent="xXq_9XsDt4aCnLvBwpvl-69" vertex="1"><mxGeometry x="1" width="20" height="20" relative="1" as="geometry"><mxPoint x="-27" y="7" as="offset"/></mxGeometry></mxCell><mxCell id="xXq_9XsDt4aCnLvBwpvl-71" value="&lt;b&gt;&lt;font style=&quot;font-size: 12px&quot;&gt;controllers&lt;/font&gt;&lt;/b&gt;" style="text;html=1;strokeColor=none;fillColor=none;align=center;verticalAlign=middle;whiteSpace=wrap;rounded=0;fontColor=#177245;" parent="1" vertex="1"><mxGeometry x="449" y="1029.5" width="109" height="20" as="geometry"/></mxCell><mxCell id="xXq_9XsDt4aCnLvBwpvl-74" value="&lt;b&gt;FindUserByIdQuery&lt;/b&gt;" style="html=1;dropTarget=0;fillColor=#f5f5f5;fontColor=#0E452A;strokeColor=#0E452A;" parent="1" vertex="1"><mxGeometry x="804.5" y="1065" width="180" height="70" as="geometry"/></mxCell><mxCell id="xXq_9XsDt4aCnLvBwpvl-75" value="" style="shape=component;jettyWidth=8;jettyHeight=4;" parent="xXq_9XsDt4aCnLvBwpvl-74" vertex="1"><mxGeometry x="1" width="20" height="20" relative="1" as="geometry"><mxPoint x="-27" y="7" as="offset"/></mxGeometry></mxCell><mxCell id="xXq_9XsDt4aCnLvBwpvl-76" value="&lt;b&gt;&lt;font style=&quot;font-size: 12px&quot;&gt;queries&lt;/font&gt;&lt;/b&gt;" style="text;html=1;strokeColor=none;fillColor=none;align=center;verticalAlign=middle;whiteSpace=wrap;rounded=0;fontColor=#177245;" parent="1" vertex="1"><mxGeometry x="796" y="949" width="109" height="20" as="geometry"/></mxCell><mxCell id="xXq_9XsDt4aCnLvBwpvl-79" style="edgeStyle=orthogonalEdgeStyle;rounded=0;orthogonalLoop=1;jettySize=auto;html=1;entryX=0.5;entryY=1;entryDx=0;entryDy=0;dashed=1;endArrow=open;endFill=0;strokeColor=#333333;fontColor=#9AC7BF;labelBackgroundColor=#B9E0A5;" parent="1" source="xXq_9XsDt4aCnLvBwpvl-87" target="xXq_9XsDt4aCnLvBwpvl-41" edge="1"><mxGeometry relative="1" as="geometry"/></mxCell><mxCell id="xXq_9XsDt4aCnLvBwpvl-80" value="&lt;font color=&quot;#333333&quot;&gt;&amp;lt;&amp;lt;handle&amp;gt;&amp;gt;&lt;/font&gt;" style="edgeLabel;html=1;align=center;verticalAlign=middle;resizable=0;points=[];fontColor=#9AC7BF;fontStyle=1;labelBackgroundColor=#B9E0A5;" parent="xXq_9XsDt4aCnLvBwpvl-79" vertex="1" connectable="0"><mxGeometry x="0.2795" y="-1" relative="1" as="geometry"><mxPoint as="offset"/></mxGeometry></mxCell><mxCell id="xXq_9XsDt4aCnLvBwpvl-81" style="edgeStyle=orthogonalEdgeStyle;rounded=0;orthogonalLoop=1;jettySize=auto;html=1;dashed=1;endArrow=open;endFill=0;strokeColor=#333333;fontColor=#9AC7BF;exitX=0.25;exitY=0;exitDx=0;exitDy=0;labelBackgroundColor=#B9E0A5;" parent="1" source="xXq_9XsDt4aCnLvBwpvl-87" target="xXq_9XsDt4aCnLvBwpvl-39" edge="1"><mxGeometry relative="1" as="geometry"><Array as="points"><mxPoint x="1329" y="890"/><mxPoint x="1174" y="890"/></Array></mxGeometry></mxCell><mxCell id="xXq_9XsDt4aCnLvBwpvl-82" value="&lt;font color=&quot;#333333&quot;&gt;&amp;lt;&amp;lt;handle&amp;gt;&lt;/font&gt;" style="edgeLabel;html=1;align=center;verticalAlign=middle;resizable=0;points=[];fontColor=#9AC7BF;fontStyle=1;labelBackgroundColor=#B9E0A5;" parent="xXq_9XsDt4aCnLvBwpvl-81" vertex="1" connectable="0"><mxGeometry x="0.6025" y="-1" relative="1" as="geometry"><mxPoint as="offset"/></mxGeometry></mxCell><mxCell id="xXq_9XsDt4aCnLvBwpvl-83" style="edgeStyle=orthogonalEdgeStyle;rounded=0;orthogonalLoop=1;jettySize=auto;html=1;exitX=0.75;exitY=0;exitDx=0;exitDy=0;entryX=0.5;entryY=1;entryDx=0;entryDy=0;dashed=1;endArrow=open;endFill=0;strokeColor=#333333;fontColor=#9AC7BF;labelBackgroundColor=#B9E0A5;" parent="1" source="xXq_9XsDt4aCnLvBwpvl-87" target="xXq_9XsDt4aCnLvBwpvl-43" edge="1"><mxGeometry relative="1" as="geometry"><Array as="points"><mxPoint x="1419" y="890"/><mxPoint x="1574" y="890"/></Array></mxGeometry></mxCell><mxCell id="xXq_9XsDt4aCnLvBwpvl-84" value="&lt;font color=&quot;#333333&quot;&gt;&amp;lt;&amp;lt;handle&amp;gt;&amp;gt;&lt;/font&gt;" style="edgeLabel;html=1;align=center;verticalAlign=middle;resizable=0;points=[];fontColor=#9AC7BF;fontStyle=1;labelBackgroundColor=#B9E0A5;" parent="xXq_9XsDt4aCnLvBwpvl-83" vertex="1" connectable="0"><mxGeometry x="0.5966" y="-3" relative="1" as="geometry"><mxPoint as="offset"/></mxGeometry></mxCell><mxCell id="xXq_9XsDt4aCnLvBwpvl-85" style="edgeStyle=orthogonalEdgeStyle;rounded=0;orthogonalLoop=1;jettySize=auto;html=1;dashed=1;endArrow=open;endFill=0;strokeColor=#333333;fontColor=#333333;entryX=0.442;entryY=0.017;entryDx=0;entryDy=0;entryPerimeter=0;" parent="1" target="xXq_9XsDt4aCnLvBwpvl-102" edge="1"><mxGeometry relative="1" as="geometry"><Array as="points"><mxPoint x="1690" y="1006"/><mxPoint x="1690" y="1031"/></Array><mxPoint x="1465.25" y="1006" as="sourcePoint"/><mxPoint x="1693" y="1031.33" as="targetPoint"/></mxGeometry></mxCell><mxCell id="xXq_9XsDt4aCnLvBwpvl-86" value="&amp;lt;&amp;lt;use&amp;gt;&amp;gt;" style="edgeLabel;html=1;align=center;verticalAlign=middle;resizable=0;points=[];fontColor=#333333;fontStyle=1;labelBackgroundColor=#E7F6E5;" parent="xXq_9XsDt4aCnLvBwpvl-85" vertex="1" connectable="0"><mxGeometry x="-0.2763" y="1" relative="1" as="geometry"><mxPoint x="-56.2" y="0.97" as="offset"/></mxGeometry></mxCell><mxCell id="xXq_9XsDt4aCnLvBwpvl-87" value="«interface»&lt;br&gt;&lt;b&gt;UserEventHandler&lt;/b&gt;" style="html=1;dropTarget=0;fillColor=#f5f5f5;fontColor=#0E452A;strokeColor=#0E452A;" parent="1" vertex="1"><mxGeometry x="1284.25" y="986" width="180" height="70" as="geometry"/></mxCell><mxCell id="xXq_9XsDt4aCnLvBwpvl-88" value="" style="shape=component;jettyWidth=8;jettyHeight=4;" parent="xXq_9XsDt4aCnLvBwpvl-87" vertex="1"><mxGeometry x="1" width="20" height="20" relative="1" as="geometry"><mxPoint x="-27" y="7" as="offset"/></mxGeometry></mxCell><mxCell id="xXq_9XsDt4aCnLvBwpvl-89" style="edgeStyle=orthogonalEdgeStyle;rounded=0;orthogonalLoop=1;jettySize=auto;html=1;exitX=1;exitY=0.25;exitDx=0;exitDy=0;entryX=-0.006;entryY=0.294;entryDx=0;entryDy=0;dashed=1;endArrow=open;endFill=0;strokeColor=#333333;fontColor=#333333;entryPerimeter=0;" parent="1" source="xXq_9XsDt4aCnLvBwpvl-91" target="xXq_9XsDt4aCnLvBwpvl-109" edge="1"><mxGeometry relative="1" as="geometry"><mxPoint x="1991.9999999999995" y="1083.5000000000005" as="targetPoint"/></mxGeometry></mxCell><mxCell id="xXq_9XsDt4aCnLvBwpvl-90" value="&lt;font&gt;&lt;b&gt;&amp;lt;&amp;lt;persists&amp;gt;&amp;gt;&lt;/b&gt;&lt;/font&gt;" style="edgeLabel;html=1;align=center;verticalAlign=middle;resizable=0;points=[];labelBackgroundColor=#FFFFFF;fontColor=#0E452A;" parent="xXq_9XsDt4aCnLvBwpvl-89" vertex="1" connectable="0"><mxGeometry x="0.1336" y="1" relative="1" as="geometry"><mxPoint x="9.18" y="0.85" as="offset"/></mxGeometry></mxCell><mxCell id="xXq_9XsDt4aCnLvBwpvl-91" value="«interface»&lt;br&gt;&lt;b&gt;UserRepository&lt;/b&gt;" style="html=1;dropTarget=0;fillColor=#f5f5f5;fontColor=#0E452A;strokeColor=#0E452A;" parent="1" vertex="1"><mxGeometry x="1600.25" y="1064.5" width="180" height="72.5" as="geometry"/></mxCell><mxCell id="xXq_9XsDt4aCnLvBwpvl-92" value="" style="shape=component;jettyWidth=8;jettyHeight=4;" parent="xXq_9XsDt4aCnLvBwpvl-91" vertex="1"><mxGeometry x="1" width="20" height="20" relative="1" as="geometry"><mxPoint x="-27" y="7" as="offset"/></mxGeometry></mxCell><mxCell id="xXq_9XsDt4aCnLvBwpvl-93" style="edgeStyle=orthogonalEdgeStyle;rounded=0;orthogonalLoop=1;jettySize=auto;html=1;dashed=1;endArrow=open;endFill=0;strokeColor=#333333;fontColor=#333333;exitX=0;exitY=0.25;exitDx=0;exitDy=0;" parent="1" source="xXq_9XsDt4aCnLvBwpvl-99" target="xXq_9XsDt4aCnLvBwpvl-131" edge="1"><mxGeometry relative="1" as="geometry"><mxPoint x="1272" y="1260" as="sourcePoint"/><Array as="points"><mxPoint x="1282" y="1082"/><mxPoint x="1172" y="1082"/><mxPoint x="1172" y="1021"/></Array><mxPoint x="984.5" y="1019" as="targetPoint"/></mxGeometry></mxCell><mxCell id="xXq_9XsDt4aCnLvBwpvl-94" value="&amp;lt;&amp;lt;handle&amp;gt;&amp;gt;" style="edgeLabel;html=1;align=center;verticalAlign=middle;resizable=0;points=[];fontColor=#333333;fontStyle=1;labelBackgroundColor=#E7F6E5;" parent="xXq_9XsDt4aCnLvBwpvl-93" vertex="1" connectable="0"><mxGeometry x="0.7685" y="2" relative="1" as="geometry"><mxPoint x="54.5" y="-2" as="offset"/></mxGeometry></mxCell><mxCell id="xXq_9XsDt4aCnLvBwpvl-95" style="edgeStyle=orthogonalEdgeStyle;rounded=0;orthogonalLoop=1;jettySize=auto;html=1;exitX=0;exitY=0.5;exitDx=0;exitDy=0;entryX=1;entryY=0.5;entryDx=0;entryDy=0;dashed=1;endArrow=open;endFill=0;strokeColor=#333333;fontColor=#333333;" parent="1" source="xXq_9XsDt4aCnLvBwpvl-99" target="xXq_9XsDt4aCnLvBwpvl-74" edge="1"><mxGeometry relative="1" as="geometry"/></mxCell><mxCell id="xXq_9XsDt4aCnLvBwpvl-96" value="&amp;lt;&amp;lt;handle&amp;gt;&amp;gt;" style="edgeLabel;html=1;align=center;verticalAlign=middle;resizable=0;points=[];fontColor=#333333;fontStyle=1;labelBackgroundColor=#E7F6E5;" parent="xXq_9XsDt4aCnLvBwpvl-95" vertex="1" connectable="0"><mxGeometry x="0.7394" relative="1" as="geometry"><mxPoint x="60.83" as="offset"/></mxGeometry></mxCell><mxCell id="xXq_9XsDt4aCnLvBwpvl-97" style="edgeStyle=orthogonalEdgeStyle;rounded=0;orthogonalLoop=1;jettySize=auto;html=1;exitX=0;exitY=0.75;exitDx=0;exitDy=0;entryX=1;entryY=0.5;entryDx=0;entryDy=0;dashed=1;endArrow=open;endFill=0;strokeColor=#333333;fontColor=#333333;entryPerimeter=0;" parent="1" source="xXq_9XsDt4aCnLvBwpvl-99" target="xXq_9XsDt4aCnLvBwpvl-139" edge="1"><mxGeometry relative="1" as="geometry"><Array as="points"><mxPoint x="1172" y="1121"/><mxPoint x="1172" y="1179"/></Array><mxPoint x="984.5" y="1208" as="targetPoint"/></mxGeometry></mxCell><mxCell id="xXq_9XsDt4aCnLvBwpvl-98" value="&amp;lt;&amp;lt;handle&amp;gt;&amp;gt;" style="edgeLabel;html=1;align=center;verticalAlign=middle;resizable=0;points=[];fontColor=#333333;fontStyle=1;labelBackgroundColor=#E7F6E5;" parent="xXq_9XsDt4aCnLvBwpvl-97" vertex="1" connectable="0"><mxGeometry x="0.7867" y="2" relative="1" as="geometry"><mxPoint x="58.33" y="-2" as="offset"/></mxGeometry></mxCell><mxCell id="xXq_9XsDt4aCnLvBwpvl-99" value="«interface»&lt;br&gt;&lt;b&gt;UserQueryHandler&lt;/b&gt;" style="html=1;dropTarget=0;fillColor=#f5f5f5;fontColor=#0E452A;strokeColor=#0E452A;" parent="1" vertex="1"><mxGeometry x="1284.25" y="1063.75" width="180" height="72.5" as="geometry"/></mxCell><mxCell id="xXq_9XsDt4aCnLvBwpvl-100" value="" style="shape=component;jettyWidth=8;jettyHeight=4;" parent="xXq_9XsDt4aCnLvBwpvl-99" vertex="1"><mxGeometry x="1" width="20" height="20" relative="1" as="geometry"><mxPoint x="-27" y="7" as="offset"/></mxGeometry></mxCell><mxCell id="xXq_9XsDt4aCnLvBwpvl-101" value="" style="rounded=0;orthogonalLoop=1;jettySize=auto;html=1;endArrow=halfCircle;endFill=0;endSize=6;strokeWidth=1;dashed=1;fontColor=#333333;exitX=0.5;exitY=0;exitDx=0;exitDy=0;" parent="1" source="xXq_9XsDt4aCnLvBwpvl-91" edge="1"><mxGeometry relative="1" as="geometry"><mxPoint x="1690" y="1058.5" as="sourcePoint"/><mxPoint x="1690.25" y="1037.5" as="targetPoint"/><Array as="points"/></mxGeometry></mxCell><mxCell id="xXq_9XsDt4aCnLvBwpvl-102" value="" style="ellipse;whiteSpace=wrap;html=1;fontFamily=Helvetica;fontSize=12;fontColor=#000000;align=center;strokeColor=#000000;points=[];aspect=fixed;resizable=0;fillColor=#333333;" parent="1" vertex="1"><mxGeometry x="1685.25" y="1031.5" width="10" height="10" as="geometry"/></mxCell><mxCell id="xXq_9XsDt4aCnLvBwpvl-107" style="edgeStyle=orthogonalEdgeStyle;rounded=0;orthogonalLoop=1;jettySize=auto;html=1;entryX=1;entryY=0.75;entryDx=0;entryDy=0;dashed=1;endArrow=open;endFill=0;strokeColor=#333333;fontColor=#333333;exitX=-0.005;exitY=0.733;exitDx=0;exitDy=0;exitPerimeter=0;" parent="1" source="xXq_9XsDt4aCnLvBwpvl-109" target="xXq_9XsDt4aCnLvBwpvl-91" edge="1"><mxGeometry relative="1" as="geometry"><mxPoint x="1950" y="1119" as="sourcePoint"/><Array as="points"><mxPoint x="1940" y="1120"/></Array></mxGeometry></mxCell><mxCell id="xXq_9XsDt4aCnLvBwpvl-108" value="&amp;lt;&amp;lt;queries&amp;gt;&amp;gt;" style="edgeLabel;html=1;align=center;verticalAlign=middle;resizable=0;points=[];fontStyle=1;labelBackgroundColor=#FFFFFF;fontColor=#0E452A;" parent="xXq_9XsDt4aCnLvBwpvl-107" vertex="1" connectable="0"><mxGeometry x="0.3462" relative="1" as="geometry"><mxPoint x="21.180000000000003" as="offset"/></mxGeometry></mxCell><mxCell id="xXq_9XsDt4aCnLvBwpvl-109" value="&lt;div&gt;&lt;br&gt;&lt;/div&gt;&lt;div&gt;User&lt;/div&gt;&lt;div&gt;(Read Database)&lt;br&gt;&lt;/div&gt;" style="shape=cylinder2;whiteSpace=wrap;html=1;boundedLbl=1;backgroundOutline=1;size=12.583333333333258;fillColor=#d5e8d4;strokeColor=#0E452A;strokeWidth=2;fontColor=#0E452A;fontStyle=1" parent="1" vertex="1"><mxGeometry x="1909" y="1059" width="124" height="83" as="geometry"/></mxCell><mxCell id="xXq_9XsDt4aCnLvBwpvl-131" value="&lt;b&gt;FindAllUsersQuery&lt;/b&gt;" style="html=1;dropTarget=0;fillColor=#f5f5f5;fontColor=#0E452A;strokeColor=#0E452A;" parent="1" vertex="1"><mxGeometry x="804.5" y="986" width="180" height="70" as="geometry"/></mxCell><mxCell id="xXq_9XsDt4aCnLvBwpvl-132" value="" style="shape=component;jettyWidth=8;jettyHeight=4;" parent="xXq_9XsDt4aCnLvBwpvl-131" vertex="1"><mxGeometry x="1" width="20" height="20" relative="1" as="geometry"><mxPoint x="-27" y="7" as="offset"/></mxGeometry></mxCell><mxCell id="xXq_9XsDt4aCnLvBwpvl-139" value="&lt;b&gt;SearchUsersQuery&lt;/b&gt;" style="html=1;dropTarget=0;fillColor=#f5f5f5;fontColor=#0E452A;strokeColor=#0E452A;" parent="1" vertex="1"><mxGeometry x="804.5" y="1144" width="180" height="70" as="geometry"/></mxCell><mxCell id="xXq_9XsDt4aCnLvBwpvl-140" value="" style="shape=component;jettyWidth=8;jettyHeight=4;" parent="xXq_9XsDt4aCnLvBwpvl-139" vertex="1"><mxGeometry x="1" width="20" height="20" relative="1" as="geometry"><mxPoint x="-27" y="7" as="offset"/></mxGeometry></mxCell><mxCell id="xXq_9XsDt4aCnLvBwpvl-150" value="" style="rounded=0;orthogonalLoop=1;jettySize=auto;html=1;endArrow=open;endFill=0;dashed=1;fontSize=15;exitX=1;exitY=0.5;exitDx=0;exitDy=0;" parent="1" source="xXq_9XsDt4aCnLvBwpvl-99" target="xXq_9XsDt4aCnLvBwpvl-152" edge="1"><mxGeometry relative="1" as="geometry"><mxPoint x="1560" y="1100" as="sourcePoint"/></mxGeometry></mxCell><mxCell id="xXq_9XsDt4aCnLvBwpvl-157" value="&lt;font style=&quot;font-size: 11px&quot;&gt;&amp;lt;&amp;lt;use&amp;gt;&amp;gt;&lt;/font&gt;" style="edgeLabel;html=1;align=center;verticalAlign=middle;resizable=0;points=[];fontSize=15;fontStyle=1;labelBackgroundColor=#E7F6E5;" parent="xXq_9XsDt4aCnLvBwpvl-150" vertex="1" connectable="0"><mxGeometry x="0.1203" y="-2" relative="1" as="geometry"><mxPoint x="-6.56" y="-6.4" as="offset"/></mxGeometry></mxCell><mxCell id="xXq_9XsDt4aCnLvBwpvl-151" value="" style="rounded=0;orthogonalLoop=1;jettySize=auto;html=1;endArrow=halfCircle;endFill=0;endSize=6;strokeWidth=1;dashed=1;fontSize=15;exitX=0;exitY=0.5;exitDx=0;exitDy=0;" parent="1" source="xXq_9XsDt4aCnLvBwpvl-91" edge="1"><mxGeometry relative="1" as="geometry"><mxPoint x="1595" y="1101" as="sourcePoint"/><mxPoint x="1545" y="1101" as="targetPoint"/></mxGeometry></mxCell><mxCell id="xXq_9XsDt4aCnLvBwpvl-152" value="" style="ellipse;whiteSpace=wrap;html=1;fontFamily=Helvetica;fontSize=12;fontColor=#000000;align=center;strokeColor=#000000;points=[];aspect=fixed;resizable=0;fillColor=#333333;" parent="1" vertex="1"><mxGeometry x="1540" y="1095.75" width="10" height="10" as="geometry"/></mxCell><mxCell id="okJUnWFdCEgONFzXg9lb-3" value="aggregates" style="text;html=1;strokeColor=none;fillColor=none;align=center;verticalAlign=middle;whiteSpace=wrap;rounded=0;fontColor=#177245;fontStyle=1" parent="1" vertex="1"><mxGeometry x="1277" y="324" width="109" height="20" as="geometry"/></mxCell><mxCell id="okJUnWFdCEgONFzXg9lb-6" value="" style="shape=folder;fontStyle=1;spacingTop=10;tabWidth=110;tabHeight=29;tabPosition=left;html=1;fontColor=#9AC7BF;strokeWidth=2;strokeColor=#0E452A;fillColor=#D5E8D4;" parent="1" vertex="1"><mxGeometry x="153" y="239" width="198" height="120" as="geometry"/></mxCell><mxCell id="okJUnWFdCEgONFzXg9lb-7" value="dto" style="text;html=1;strokeColor=none;fillColor=none;align=center;verticalAlign=middle;whiteSpace=wrap;rounded=0;fontColor=#177245;fontStyle=1" parent="1" vertex="1"><mxGeometry x="155" y="244" width="109" height="20" as="geometry"/></mxCell><mxCell id="okJUnWFdCEgONFzXg9lb-8" value="&lt;b&gt;RegisterUserResponse&lt;/b&gt;" style="html=1;dropTarget=0;fillColor=#f5f5f5;fontColor=#0E452A;strokeColor=#0E452A;" parent="1" vertex="1"><mxGeometry x="162" y="278" width="180" height="70" as="geometry"/></mxCell><mxCell id="okJUnWFdCEgONFzXg9lb-9" value="" style="shape=component;jettyWidth=8;jettyHeight=4;" parent="okJUnWFdCEgONFzXg9lb-8" vertex="1"><mxGeometry x="1" width="20" height="20" relative="1" as="geometry"><mxPoint x="-27" y="7" as="offset"/></mxGeometry></mxCell><mxCell id="okJUnWFdCEgONFzXg9lb-10" value="&lt;font color=&quot;#0E452A&quot;&gt;&lt;b&gt;&amp;lt;&amp;lt;returns&amp;gt;&amp;gt;&lt;/b&gt;&lt;/font&gt;" style="edgeStyle=orthogonalEdgeStyle;rounded=0;orthogonalLoop=1;jettySize=auto;html=1;shadow=0;labelBackgroundColor=#B2E2AB;strokeColor=#000000;fontColor=#FFFFFF;dashed=1;endArrow=open;endFill=0;" parent="1" source="xXq_9XsDt4aCnLvBwpvl-47" target="okJUnWFdCEgONFzXg9lb-8" edge="1"><mxGeometry relative="1" as="geometry"/></mxCell><mxCell id="okJUnWFdCEgONFzXg9lb-4" value="" style="shape=folder;fontStyle=1;spacingTop=10;tabWidth=110;tabHeight=29;tabPosition=left;html=1;fontColor=#9AC7BF;strokeWidth=2;strokeColor=#0E452A;fillColor=#D5E8D4;" parent="1" vertex="1"><mxGeometry x="152" y="673" width="198" height="120" as="geometry"/></mxCell><mxCell id="okJUnWFdCEgONFzXg9lb-5" value="dto" style="text;html=1;strokeColor=none;fillColor=none;align=center;verticalAlign=middle;whiteSpace=wrap;rounded=0;fontColor=#177245;fontStyle=1" parent="1" vertex="1"><mxGeometry x="154" y="678" width="109" height="20" as="geometry"/></mxCell><mxCell id="xXq_9XsDt4aCnLvBwpvl-143" value="&lt;b&gt;BaseResponse&lt;/b&gt;" style="html=1;dropTarget=0;fillColor=#f5f5f5;fontColor=#0E452A;strokeColor=#0E452A;" parent="1" vertex="1"><mxGeometry x="161.75" y="712" width="180" height="70" as="geometry"/></mxCell><mxCell id="xXq_9XsDt4aCnLvBwpvl-144" value="" style="shape=component;jettyWidth=8;jettyHeight=4;" parent="xXq_9XsDt4aCnLvBwpvl-143" vertex="1"><mxGeometry x="1" width="20" height="20" relative="1" as="geometry"><mxPoint x="-27" y="7" as="offset"/></mxGeometry></mxCell><mxCell id="okJUnWFdCEgONFzXg9lb-12" style="edgeStyle=orthogonalEdgeStyle;rounded=0;orthogonalLoop=1;jettySize=auto;html=1;exitX=0.5;exitY=1;exitDx=0;exitDy=0;shadow=0;dashed=1;labelBackgroundColor=#B2E2AB;endArrow=open;endFill=0;strokeColor=#000000;fontColor=#FFFFFF;" parent="1" source="okJUnWFdCEgONFzXg9lb-8" target="xXq_9XsDt4aCnLvBwpvl-143" edge="1"><mxGeometry relative="1" as="geometry"/></mxCell><mxCell id="okJUnWFdCEgONFzXg9lb-13" value="&lt;span style=&quot;&quot;&gt;&lt;font color=&quot;#0E452A&quot;&gt;&amp;lt;&amp;lt;extends&amp;gt;&amp;gt;&lt;/font&gt;&lt;/span&gt;" style="edgeLabel;html=1;align=center;verticalAlign=middle;resizable=0;points=[];fontColor=#FFFFFF;labelBackgroundColor=#B2E2AB;fontStyle=1" parent="okJUnWFdCEgONFzXg9lb-12" vertex="1" connectable="0"><mxGeometry x="-0.2464" relative="1" as="geometry"><mxPoint as="offset"/></mxGeometry></mxCell><mxCell id="okJUnWFdCEgONFzXg9lb-14" value="&lt;font color=&quot;#0E452A&quot;&gt;&lt;b&gt;&amp;lt;&amp;lt;returns&amp;gt;&amp;gt;&lt;/b&gt;&lt;/font&gt;" style="edgeStyle=orthogonalEdgeStyle;rounded=0;orthogonalLoop=1;jettySize=auto;html=1;exitX=0;exitY=0.5;exitDx=0;exitDy=0;entryX=0.75;entryY=0;entryDx=0;entryDy=0;shadow=0;dashed=1;labelBackgroundColor=#B2E2AB;endArrow=open;endFill=0;strokeColor=#000000;fontColor=#FFFFFF;" parent="1" source="xXq_9XsDt4aCnLvBwpvl-50" target="xXq_9XsDt4aCnLvBwpvl-143" edge="1"><mxGeometry x="-0.6974" relative="1" as="geometry"><mxPoint as="offset"/></mxGeometry></mxCell><mxCell id="okJUnWFdCEgONFzXg9lb-18" value="&lt;font color=&quot;#0E452A&quot;&gt;&lt;b&gt;&amp;lt;&amp;lt;returns&amp;gt;&amp;gt;&lt;/b&gt;&lt;/font&gt;" style="edgeStyle=orthogonalEdgeStyle;rounded=0;orthogonalLoop=1;jettySize=auto;html=1;exitX=0;exitY=0.5;exitDx=0;exitDy=0;entryX=1;entryY=0;entryDx=0;entryDy=0;shadow=0;dashed=1;labelBackgroundColor=#B2E2AB;endArrow=open;endFill=0;strokeColor=#000000;fontColor=#FFFFFF;" parent="1" source="xXq_9XsDt4aCnLvBwpvl-54" target="xXq_9XsDt4aCnLvBwpvl-143" edge="1"><mxGeometry x="-0.5959" relative="1" as="geometry"><mxPoint as="offset"/></mxGeometry></mxCell><mxCell id="okJUnWFdCEgONFzXg9lb-24" value="" style="shape=folder;fontStyle=1;spacingTop=10;tabWidth=110;tabHeight=29;tabPosition=left;html=1;fontColor=#9AC7BF;strokeWidth=2;strokeColor=#0E452A;fillColor=#D5E8D4;" parent="1" vertex="1"><mxGeometry x="152" y="1024" width="198" height="120" as="geometry"/></mxCell><mxCell id="okJUnWFdCEgONFzXg9lb-25" value="dto" style="text;html=1;strokeColor=none;fillColor=none;align=center;verticalAlign=middle;whiteSpace=wrap;rounded=0;fontColor=#177245;fontStyle=1" parent="1" vertex="1"><mxGeometry x="154" y="1029" width="109" height="20" as="geometry"/></mxCell><mxCell id="okJUnWFdCEgONFzXg9lb-28" style="edgeStyle=orthogonalEdgeStyle;rounded=0;orthogonalLoop=1;jettySize=auto;html=1;exitX=0.5;exitY=0;exitDx=0;exitDy=0;entryX=0.5;entryY=1;entryDx=0;entryDy=0;shadow=0;dashed=1;labelBackgroundColor=#B2E2AB;endArrow=open;endFill=0;strokeColor=#000000;fontColor=#FFFFFF;" parent="1" source="okJUnWFdCEgONFzXg9lb-26" target="xXq_9XsDt4aCnLvBwpvl-143" edge="1"><mxGeometry relative="1" as="geometry"/></mxCell><mxCell id="okJUnWFdCEgONFzXg9lb-30" value="&lt;b&gt;&amp;lt;&amp;lt;extends&amp;gt;&amp;gt;&lt;/b&gt;" style="edgeLabel;html=1;align=center;verticalAlign=middle;resizable=0;points=[];fontColor=#0E452A;labelBackgroundColor=#E7F6E5;" parent="okJUnWFdCEgONFzXg9lb-28" vertex="1" connectable="0"><mxGeometry x="0.0004" y="46" relative="1" as="geometry"><mxPoint x="43" y="45" as="offset"/></mxGeometry></mxCell><mxCell id="okJUnWFdCEgONFzXg9lb-26" value="&lt;b&gt;UserLookupResponse&lt;/b&gt;" style="html=1;dropTarget=0;fillColor=#f5f5f5;fontColor=#0E452A;strokeColor=#0E452A;" parent="1" vertex="1"><mxGeometry x="162" y="1064.5" width="180" height="70" as="geometry"/></mxCell><mxCell id="okJUnWFdCEgONFzXg9lb-27" value="" style="shape=component;jettyWidth=8;jettyHeight=4;" parent="okJUnWFdCEgONFzXg9lb-26" vertex="1"><mxGeometry x="1" width="20" height="20" relative="1" as="geometry"><mxPoint x="-27" y="7" as="offset"/></mxGeometry></mxCell><mxCell id="okJUnWFdCEgONFzXg9lb-31" value="&amp;lt;&amp;lt;returns&amp;gt;&amp;gt;" style="edgeStyle=orthogonalEdgeStyle;rounded=0;orthogonalLoop=1;jettySize=auto;html=1;exitX=0;exitY=0.5;exitDx=0;exitDy=0;entryX=1;entryY=0.5;entryDx=0;entryDy=0;shadow=0;dashed=1;labelBackgroundColor=#E7F6E5;endArrow=open;endFill=0;strokeColor=#000000;fontColor=#0E452A;fontStyle=1" parent="1" source="xXq_9XsDt4aCnLvBwpvl-69" target="okJUnWFdCEgONFzXg9lb-26" edge="1"><mxGeometry relative="1" as="geometry"/></mxCell><mxCell id="okJUnWFdCEgONFzXg9lb-46" style="edgeStyle=orthogonalEdgeStyle;rounded=0;orthogonalLoop=1;jettySize=auto;html=1;exitX=0.25;exitY=1;exitDx=0;exitDy=0;entryX=0.136;entryY=0.03;entryDx=0;entryDy=0;entryPerimeter=0;shadow=0;dashed=1;labelBackgroundColor=#009999;endArrow=open;endFill=0;strokeColor=#000000;fontColor=#FFB366;" parent="1" source="okJUnWFdCEgONFzXg9lb-40" target="okJUnWFdCEgONFzXg9lb-45" edge="1"><mxGeometry relative="1" as="geometry"/></mxCell><mxCell id="okJUnWFdCEgONFzXg9lb-48" value="&lt;div&gt;&lt;b&gt;&amp;lt;&amp;lt;persist events&amp;gt;&amp;gt;&lt;/b&gt;&lt;/div&gt;" style="edgeLabel;html=1;align=center;verticalAlign=middle;resizable=0;points=[];labelBackgroundColor=#FFFFFF;fontColor=#0E452A;" parent="okJUnWFdCEgONFzXg9lb-46" vertex="1" connectable="0"><mxGeometry x="-0.0305" y="5" relative="1" as="geometry"><mxPoint x="-4" y="12.5" as="offset"/></mxGeometry></mxCell><mxCell id="okJUnWFdCEgONFzXg9lb-40" value="«interface»&lt;br&gt;&lt;b&gt;&lt;span&gt;EventSourcingRepository&lt;/span&gt;&lt;/b&gt;" style="html=1;dropTarget=0;fillColor=#f5f5f5;fontColor=#0E452A;strokeColor=#0E452A;" parent="1" vertex="1"><mxGeometry x="1877" y="357" width="180" height="72.5" as="geometry"/></mxCell><mxCell id="okJUnWFdCEgONFzXg9lb-41" value="" style="shape=component;jettyWidth=8;jettyHeight=4;" parent="okJUnWFdCEgONFzXg9lb-40" vertex="1"><mxGeometry x="1" width="20" height="20" relative="1" as="geometry"><mxPoint x="-27" y="7" as="offset"/></mxGeometry></mxCell><mxCell id="okJUnWFdCEgONFzXg9lb-45" value="&lt;div&gt;&lt;font&gt;&lt;br&gt;&lt;/font&gt;&lt;/div&gt;&lt;div&gt;&lt;font&gt;Event Store&lt;/font&gt;&lt;/div&gt;&lt;div&gt;&lt;font&gt;(Write Database)&lt;br&gt;&lt;/font&gt;&lt;/div&gt;" style="shape=cylinder2;whiteSpace=wrap;html=1;boundedLbl=1;backgroundOutline=1;size=12.583333333333258;fillColor=#d5e8d4;strokeWidth=2;strokeColor=#0E452A;fontStyle=1;fontColor=#0E452A;" parent="1" vertex="1"><mxGeometry x="1906" y="506" width="120" height="83" as="geometry"/></mxCell><mxCell id="okJUnWFdCEgONFzXg9lb-47" style="edgeStyle=orthogonalEdgeStyle;rounded=0;orthogonalLoop=1;jettySize=auto;html=1;entryX=0.878;entryY=0.043;entryDx=0;entryDy=0;entryPerimeter=0;shadow=0;dashed=1;labelBackgroundColor=#009999;endArrow=none;endFill=0;strokeColor=#000000;fontColor=#FFB366;startArrow=open;startFill=0;" parent="1" source="okJUnWFdCEgONFzXg9lb-40" target="okJUnWFdCEgONFzXg9lb-45" edge="1"><mxGeometry relative="1" as="geometry"><mxPoint x="2011" y="463.19" as="sourcePoint"/><mxPoint x="2009.7599999999998" y="535.0040000000001" as="targetPoint"/><Array as="points"><mxPoint x="2010" y="510"/><mxPoint x="2011" y="510"/></Array></mxGeometry></mxCell><mxCell id="okJUnWFdCEgONFzXg9lb-52" value="&amp;lt;&amp;lt;replay events&amp;gt;&amp;gt;" style="edgeLabel;html=1;align=center;verticalAlign=middle;resizable=0;points=[];fontStyle=1;labelBackgroundColor=#FFFFFF;fontColor=#0E452A;" parent="okJUnWFdCEgONFzXg9lb-47" vertex="1" connectable="0"><mxGeometry x="-0.2051" y="-1" relative="1" as="geometry"><mxPoint y="-6.8" as="offset"/></mxGeometry></mxCell></root></mxGraphModel></diagram></mxfile>